<svg width="48" height="54" viewBox="0 0 48 54" fill="none" xmlns="http://www.w3.org/2000/svg">
<rect width="48" height="51" rx="6" fill="#252266"/>
<path d="M5.74268 44V37.6016H7.54883C8.10547 37.6016 8.59766 37.7246 9.02539 37.9707C9.45312 38.2168 9.78271 38.5669 10.0142 39.021C10.2485 39.4751 10.3672 39.9966 10.3701 40.5854V40.9941C10.3701 41.5977 10.2529 42.1265 10.0186 42.5806C9.78711 43.0347 9.45459 43.3833 9.021 43.6265C8.59033 43.8696 8.08789 43.9941 7.51367 44H5.74268ZM6.58643 38.2959V43.3101H7.47412C8.12451 43.3101 8.62988 43.1079 8.99023 42.7036C9.35352 42.2993 9.53516 41.7236 9.53516 40.9766V40.603C9.53516 39.8765 9.36377 39.3125 9.021 38.9111C8.68115 38.5068 8.19775 38.3018 7.5708 38.2959H6.58643ZM14.457 44C14.4102 43.9062 14.3721 43.7393 14.3428 43.499C13.9648 43.8916 13.5137 44.0879 12.9893 44.0879C12.5205 44.0879 12.1353 43.9561 11.8335 43.6924C11.5347 43.4258 11.3853 43.0889 11.3853 42.6816C11.3853 42.1865 11.5728 41.8027 11.9478 41.5303C12.3257 41.2549 12.856 41.1172 13.5386 41.1172H14.3296V40.7437C14.3296 40.4595 14.2446 40.2339 14.0747 40.0669C13.9048 39.897 13.6543 39.812 13.3232 39.812C13.0332 39.812 12.79 39.8853 12.5938 40.0317C12.3975 40.1782 12.2993 40.3555 12.2993 40.5635H11.4819C11.4819 40.3262 11.5654 40.0977 11.7324 39.8779C11.9023 39.6553 12.1309 39.4795 12.418 39.3506C12.708 39.2217 13.0259 39.1572 13.3716 39.1572C13.9194 39.1572 14.3486 39.2949 14.6592 39.5703C14.9697 39.8428 15.1309 40.2192 15.1426 40.6997V42.8882C15.1426 43.3247 15.1982 43.6719 15.3096 43.9297V44H14.457ZM13.1079 43.3804C13.3628 43.3804 13.6045 43.3145 13.833 43.1826C14.0615 43.0508 14.2271 42.8794 14.3296 42.6685V41.6929H13.6924C12.6963 41.6929 12.1982 41.9844 12.1982 42.5674C12.1982 42.8223 12.2832 43.0215 12.4531 43.165C12.623 43.3086 12.8413 43.3804 13.1079 43.3804ZM17.52 38.0938V39.2451H18.4077V39.8735H17.52V42.8223C17.52 43.0127 17.5596 43.1562 17.6387 43.2529C17.7178 43.3467 17.8525 43.3936 18.043 43.3936C18.1367 43.3936 18.2656 43.376 18.4297 43.3408V44C18.2158 44.0586 18.0078 44.0879 17.8057 44.0879C17.4424 44.0879 17.1685 43.978 16.9839 43.7583C16.7993 43.5386 16.707 43.2266 16.707 42.8223V39.8735H15.8413V39.2451H16.707V38.0938H17.52ZM22.2969 44C22.25 43.9062 22.2119 43.7393 22.1826 43.499C21.8047 43.8916 21.3535 44.0879 20.8291 44.0879C20.3604 44.0879 19.9751 43.9561 19.6733 43.6924C19.3745 43.4258 19.2251 43.0889 19.2251 42.6816C19.2251 42.1865 19.4126 41.8027 19.7876 41.5303C20.1655 41.2549 20.6958 41.1172 21.3784 41.1172H22.1694V40.7437C22.1694 40.4595 22.0845 40.2339 21.9146 40.0669C21.7446 39.897 21.4941 39.812 21.1631 39.812C20.873 39.812 20.6299 39.8853 20.4336 40.0317C20.2373 40.1782 20.1392 40.3555 20.1392 40.5635H19.3218C19.3218 40.3262 19.4053 40.0977 19.5723 39.8779C19.7422 39.6553 19.9707 39.4795 20.2578 39.3506C20.5479 39.2217 20.8657 39.1572 21.2114 39.1572C21.7593 39.1572 22.1885 39.2949 22.499 39.5703C22.8096 39.8428 22.9707 40.2192 22.9824 40.6997V42.8882C22.9824 43.3247 23.0381 43.6719 23.1494 43.9297V44H22.2969ZM20.9478 43.3804C21.2026 43.3804 21.4443 43.3145 21.6729 43.1826C21.9014 43.0508 22.0669 42.8794 22.1694 42.6685V41.6929H21.5322C20.5361 41.6929 20.0381 41.9844 20.0381 42.5674C20.0381 42.8223 20.123 43.0215 20.293 43.165C20.4629 43.3086 20.6812 43.3804 20.9478 43.3804ZM28.2822 41.6753C28.2822 42.4019 28.1152 42.9863 27.7812 43.4287C27.4473 43.8682 26.999 44.0879 26.4365 44.0879C25.8359 44.0879 25.3716 43.8755 25.0435 43.4507L25.0039 44H24.2568V37.25H25.0698V39.7681C25.3979 39.3608 25.8506 39.1572 26.4277 39.1572C27.0049 39.1572 27.4575 39.3755 27.7856 39.812C28.1167 40.2485 28.2822 40.8462 28.2822 41.605V41.6753ZM27.4692 41.583C27.4692 41.0293 27.3623 40.6016 27.1484 40.2998C26.9346 39.998 26.627 39.8472 26.2256 39.8472C25.6895 39.8472 25.3042 40.0962 25.0698 40.5942V42.6509C25.3188 43.1489 25.707 43.3979 26.2344 43.3979C26.624 43.3979 26.9272 43.2471 27.144 42.9453C27.3608 42.6436 27.4692 42.1895 27.4692 41.583ZM32.2461 44C32.1992 43.9062 32.1611 43.7393 32.1318 43.499C31.7539 43.8916 31.3027 44.0879 30.7783 44.0879C30.3096 44.0879 29.9243 43.9561 29.6226 43.6924C29.3237 43.4258 29.1743 43.0889 29.1743 42.6816C29.1743 42.1865 29.3618 41.8027 29.7368 41.5303C30.1147 41.2549 30.645 41.1172 31.3276 41.1172H32.1187V40.7437C32.1187 40.4595 32.0337 40.2339 31.8638 40.0669C31.6938 39.897 31.4434 39.812 31.1123 39.812C30.8223 39.812 30.5791 39.8853 30.3828 40.0317C30.1865 40.1782 30.0884 40.3555 30.0884 40.5635H29.271C29.271 40.3262 29.3545 40.0977 29.5215 39.8779C29.6914 39.6553 29.9199 39.4795 30.207 39.3506C30.4971 39.2217 30.8149 39.1572 31.1606 39.1572C31.7085 39.1572 32.1377 39.2949 32.4482 39.5703C32.7588 39.8428 32.9199 40.2192 32.9316 40.6997V42.8882C32.9316 43.3247 32.9873 43.6719 33.0986 43.9297V44H32.2461ZM30.897 43.3804C31.1519 43.3804 31.3936 43.3145 31.6221 43.1826C31.8506 43.0508 32.0161 42.8794 32.1187 42.6685V41.6929H31.4814C30.4854 41.6929 29.9873 41.9844 29.9873 42.5674C29.9873 42.8223 30.0723 43.0215 30.2422 43.165C30.4121 43.3086 30.6304 43.3804 30.897 43.3804ZM36.9746 42.7388C36.9746 42.519 36.8911 42.3491 36.7241 42.229C36.5601 42.106 36.2715 42.0005 35.8584 41.9126C35.4482 41.8247 35.1216 41.7192 34.8784 41.5962C34.6382 41.4731 34.4595 41.3267 34.3423 41.1567C34.228 40.9868 34.1709 40.7847 34.1709 40.5503C34.1709 40.1606 34.335 39.8311 34.6631 39.5615C34.9941 39.292 35.416 39.1572 35.9287 39.1572C36.4678 39.1572 36.9043 39.2964 37.2383 39.5747C37.5752 39.853 37.7437 40.209 37.7437 40.6426H36.9263C36.9263 40.4199 36.8311 40.228 36.6406 40.0669C36.4531 39.9058 36.2158 39.8252 35.9287 39.8252C35.6328 39.8252 35.4014 39.8896 35.2344 40.0186C35.0674 40.1475 34.9839 40.3159 34.9839 40.5239C34.9839 40.7202 35.0615 40.8682 35.2168 40.9678C35.3721 41.0674 35.6519 41.1626 36.0562 41.2534C36.4634 41.3442 36.793 41.4526 37.0449 41.5786C37.2969 41.7046 37.4829 41.8569 37.603 42.0356C37.7261 42.2114 37.7876 42.4268 37.7876 42.6816C37.7876 43.1064 37.6177 43.4478 37.2778 43.7056C36.938 43.9604 36.4971 44.0879 35.9551 44.0879C35.5742 44.0879 35.2373 44.0205 34.9443 43.8857C34.6514 43.751 34.4214 43.5635 34.2544 43.3232C34.0903 43.0801 34.0083 42.8179 34.0083 42.5366H34.8213C34.8359 42.8091 34.9443 43.0259 35.1465 43.187C35.3516 43.3452 35.6211 43.4243 35.9551 43.4243C36.2627 43.4243 36.5088 43.3628 36.6934 43.2397C36.8809 43.1138 36.9746 42.9468 36.9746 42.7388ZM40.8198 44.0879C40.1753 44.0879 39.6509 43.877 39.2466 43.4551C38.8423 43.0303 38.6401 42.4634 38.6401 41.7544V41.605C38.6401 41.1333 38.7295 40.7129 38.9082 40.3438C39.0898 39.9717 39.3418 39.6816 39.6641 39.4736C39.9893 39.2627 40.3408 39.1572 40.7188 39.1572C41.3369 39.1572 41.8174 39.3608 42.1602 39.7681C42.5029 40.1753 42.6743 40.7583 42.6743 41.5171V41.8555H39.4531C39.4648 42.3242 39.6011 42.7036 39.8618 42.9937C40.1255 43.2808 40.4595 43.4243 40.8638 43.4243C41.1509 43.4243 41.394 43.3657 41.5933 43.2485C41.7925 43.1313 41.9668 42.9761 42.1162 42.7827L42.6128 43.1694C42.2144 43.7817 41.6167 44.0879 40.8198 44.0879ZM40.7188 39.8252C40.3906 39.8252 40.1152 39.9453 39.8926 40.1855C39.6699 40.4229 39.5322 40.7568 39.4795 41.1875H41.8613V41.126C41.8379 40.7129 41.7266 40.3936 41.5273 40.168C41.3281 39.9395 41.0586 39.8252 40.7188 39.8252Z" fill="#F2F2F2"/>
<path d="M24 4C15.163 4 8 6.239 8 9V13C8 15.761 15.163 18 24 18C32.837 18 40 15.761 40 13V9C40 6.239 32.837 4 24 4Z" fill="#F2F2F2"/>
<path d="M24 21C15.163 21 8 18.761 8 16V22C8 24.761 15.163 27 24 27C32.837 27 40 24.761 40 22V16C40 18.761 32.837 21 24 21Z" fill="#F2F2F2"/>
<path d="M24 30C15.163 30 8 27.761 8 25V31C8 33.761 15.163 36 24 36C32.837 36 40 33.761 40 31V25C40 27.761 32.837 30 24 30Z" fill="#F2F2F2"/>
</svg>
