<svg width="48" height="54" viewBox="0 0 48 54" fill="none" xmlns="http://www.w3.org/2000/svg">
<rect width="48" height="51" rx="6" fill="#252266"/>
<path d="M36 19H31L24 26L17 19H12L8 27V29H40V27L36 19ZM8 31H40V33H8V31ZM26 13V5H22V13H15L24 22L33 13H26Z" fill="#F2F2F2"/>
<path d="M9.74268 44V37.6016H11.8345C12.5288 37.6016 13.0503 37.7451 13.3989 38.0322C13.7505 38.3193 13.9263 38.7441 13.9263 39.3066C13.9263 39.6055 13.8413 39.8706 13.6714 40.1021C13.5015 40.3306 13.27 40.5078 12.9771 40.6338C13.3228 40.7305 13.5952 40.915 13.7944 41.1875C13.9966 41.457 14.0977 41.7793 14.0977 42.1543C14.0977 42.7285 13.9116 43.1797 13.5396 43.5078C13.1675 43.8359 12.6416 44 11.9619 44H9.74268ZM10.5864 41.0073V43.3101H11.9795C12.3721 43.3101 12.6812 43.209 12.9067 43.0068C13.1353 42.8018 13.2495 42.5205 13.2495 42.1631C13.2495 41.3926 12.8306 41.0073 11.9927 41.0073H10.5864ZM10.5864 40.3306H11.8608C12.23 40.3306 12.5244 40.2383 12.7441 40.0537C12.9668 39.8691 13.0781 39.6187 13.0781 39.3022C13.0781 38.9507 12.9756 38.6958 12.7705 38.5376C12.5654 38.3765 12.2534 38.2959 11.8345 38.2959H10.5864V40.3306ZM18.1582 44C18.1113 43.9062 18.0732 43.7393 18.0439 43.499C17.666 43.8916 17.2148 44.0879 16.6904 44.0879C16.2217 44.0879 15.8364 43.9561 15.5347 43.6924C15.2358 43.4258 15.0864 43.0889 15.0864 42.6816C15.0864 42.1865 15.2739 41.8027 15.6489 41.5303C16.0269 41.2549 16.5571 41.1172 17.2397 41.1172H18.0308V40.7437C18.0308 40.4595 17.9458 40.2339 17.7759 40.0669C17.606 39.897 17.3555 39.812 17.0244 39.812C16.7344 39.812 16.4912 39.8853 16.2949 40.0317C16.0986 40.1782 16.0005 40.3555 16.0005 40.5635H15.1831C15.1831 40.3262 15.2666 40.0977 15.4336 39.8779C15.6035 39.6553 15.832 39.4795 16.1191 39.3506C16.4092 39.2217 16.7271 39.1572 17.0728 39.1572C17.6206 39.1572 18.0498 39.2949 18.3604 39.5703C18.6709 39.8428 18.832 40.2192 18.8438 40.6997V42.8882C18.8438 43.3247 18.8994 43.6719 19.0107 43.9297V44H18.1582ZM16.8091 43.3804C17.064 43.3804 17.3057 43.3145 17.5342 43.1826C17.7627 43.0508 17.9282 42.8794 18.0308 42.6685V41.6929H17.3936C16.3975 41.6929 15.8994 41.9844 15.8994 42.5674C15.8994 42.8223 15.9844 43.0215 16.1543 43.165C16.3242 43.3086 16.5425 43.3804 16.8091 43.3804ZM22.0254 43.4243C22.3154 43.4243 22.5688 43.3364 22.7856 43.1606C23.0024 42.9849 23.1226 42.7651 23.146 42.5015H23.915C23.9004 42.7739 23.8066 43.0332 23.6338 43.2793C23.4609 43.5254 23.2295 43.7217 22.9395 43.8682C22.6523 44.0146 22.3477 44.0879 22.0254 44.0879C21.3779 44.0879 20.8623 43.8726 20.4785 43.4419C20.0977 43.0083 19.9072 42.4165 19.9072 41.6665V41.5303C19.9072 41.0674 19.9922 40.6558 20.1621 40.2954C20.332 39.9351 20.5752 39.6553 20.8916 39.4561C21.2109 39.2568 21.5874 39.1572 22.021 39.1572C22.5542 39.1572 22.9966 39.3169 23.3481 39.6362C23.7026 39.9556 23.8916 40.3701 23.915 40.8799H23.146C23.1226 40.5723 23.0054 40.3203 22.7944 40.124C22.5864 39.9248 22.3286 39.8252 22.021 39.8252C21.6079 39.8252 21.2871 39.9746 21.0586 40.2734C20.833 40.5693 20.7202 40.9985 20.7202 41.561V41.7148C20.7202 42.2627 20.833 42.6846 21.0586 42.9805C21.2842 43.2764 21.6064 43.4243 22.0254 43.4243ZM26.1562 41.7983L25.6465 42.3301V44H24.8335V37.25H25.6465V41.3325L26.0815 40.8096L27.5625 39.2451H28.5513L26.7012 41.2314L28.7666 44H27.813L26.1562 41.7983ZM32.3262 43.5298C32.0098 43.9019 31.5454 44.0879 30.9331 44.0879C30.4263 44.0879 30.0396 43.9414 29.7729 43.6484C29.5093 43.3525 29.376 42.916 29.373 42.3389V39.2451H30.186V42.3169C30.186 43.0376 30.479 43.3979 31.0649 43.3979C31.686 43.3979 32.0991 43.1665 32.3042 42.7036V39.2451H33.1172V44H32.3438L32.3262 43.5298ZM38.373 41.6753C38.373 42.3989 38.2075 42.9819 37.8765 43.4243C37.5454 43.8667 37.0972 44.0879 36.5317 44.0879C35.9546 44.0879 35.5005 43.9048 35.1694 43.5386V45.8281H34.3564V39.2451H35.0991L35.1387 39.7725C35.4697 39.3623 35.9297 39.1572 36.5186 39.1572C37.0898 39.1572 37.541 39.3726 37.8721 39.8032C38.2061 40.2339 38.373 40.833 38.373 41.6006V41.6753ZM37.5601 41.583C37.5601 41.0469 37.4458 40.6235 37.2173 40.313C36.9888 40.0024 36.6753 39.8472 36.2769 39.8472C35.7847 39.8472 35.4155 40.0654 35.1694 40.502V42.7739C35.4126 43.2075 35.7847 43.4243 36.2856 43.4243C36.6753 43.4243 36.9844 43.2705 37.2129 42.9629C37.4443 42.6523 37.5601 42.1924 37.5601 41.583Z" fill="#F2F2F2"/>
</svg>
