<?xml version="1.0" encoding="utf-8"?><!DOCTYPE svg PUBLIC "-//W3C//DTD SVG 1.1//EN" "http://www.w3.org/Graphics/SVG/1.1/DTD/svg11.dtd"><svg version="1.1" xmlns="http://www.w3.org/2000/svg" xmlns:xlink="http://www.w3.org/1999/xlink" width="32" height="32" viewBox="0 0 32 32" data-tags="debian"><g fill="#444" transform="scale(0.03125 0.03125)"><path fill="rgb(168, 29, 51)" d="M592.213 541.013c-17.067 0 3.413 8.533 25.6 11.947 5.973-4.267 11.52-9.387 16.64-14.080-8.261 1.898-17.747 2.986-27.488 2.986-5.198 0-10.324-0.31-15.361-0.912l0.608 0.059zM683.52 518.4c9.813-14.080 17.067-29.44 20.053-45.227-2.56 11.52-8.533 21.333-14.080 31.147-32 20.053-2.987-11.52 0-23.893-34.133 43.093-4.693 25.6-5.973 37.973zM716.8 430.933c2.133-30.72-5.973-21.333-8.533-9.387 2.987 1.707 5.547 21.333 8.533 9.387zM528.213 13.227c8.533 1.707 19.2 2.987 17.92 5.12 9.813-2.133 11.947-4.267-18.347-5.12zM546.133 18.347l-6.4 1.28 5.973-0.427v-0.853z" /><path fill="rgb(168, 29, 51)" d="M828.587 442.453c0.853 27.307-8.533 40.533-16.213 64l-14.933 7.68c-11.947 23.040 1.28 14.933-7.253 33.28-18.773 16.64-57.173 52.053-69.12 55.467-8.533 0 5.973-10.667 8.107-14.507-25.173 17.067-20.48 25.6-58.453 36.267l-1.28-2.56c-94.72 44.373-226.133-43.52-224-163.84-1.28 7.253-2.987 5.547-5.12 8.533-0.345-3.836-0.542-8.298-0.542-12.805 0-59.802 34.657-111.509 84.981-136.133l0.894-0.395c18.755-9.636 40.923-15.284 64.409-15.284 36.389 0 69.611 13.557 94.891 35.897l-0.153-0.133c-26.312-33.897-67.065-55.502-112.865-55.502-1.121 0-2.24 0.013-3.355 0.039l0.166-0.003c-50.347 0.427-97.28 32.427-113.067 66.987-25.6 16.213-28.587 62.72-39.68 70.827-15.36 110.933 28.16 158.72 101.547 215.040 11.52 8.107 3.413 8.96 5.12 14.933-25.673-12.352-47.379-29.010-65.079-49.258l-0.201-0.235c9.813 14.080 20.053 28.16 34.133 38.827-23.467-7.68-54.187-55.467-63.147-57.6 39.68 70.827 161.28 124.587 224.427 98.133-5.6 0.422-12.129 0.663-18.715 0.663-28.833 0-56.588-4.613-82.569-13.141l1.87 0.531c-14.080-6.827-32.853-21.76-29.867-24.32 28.323 12.237 61.301 19.355 95.941 19.355 59.25 0 113.637-20.823 156.241-55.549l-0.449 0.355c18.773-14.933 39.68-40.107 45.653-40.533-8.533 13.653 1.707 6.827-5.12 18.773 18.773-30.72-8.533-12.8 19.627-52.907l10.24 14.080c-3.84-25.6 31.573-56.32 28.16-96.427 8.107-12.8 8.533 12.8 0 41.387 12.373-31.573 3.413-36.267 6.4-62.293 3.413 8.533 7.68 17.92 9.813 26.88-7.68-29.867 8.533-51.2 11.947-68.267-3.84-2.133-11.947 12.8-13.653-22.613 0-15.787 4.267-8.533 5.973-11.947-3.413-2.133-11.093-13.653-16.213-36.693 3.413-5.547 9.387 14.080 14.507 14.507-3.413-17.92-8.533-32-8.533-46.080-14.507-29.013-5.12 4.267-17.067-12.8-14.507-46.507 12.8-10.667 14.507-31.573 23.040 32.853 35.84 83.627 41.813 104.96-4.267-25.6-11.947-51.2-20.907-75.093 6.827 2.987-11.093-52.907 8.96-15.787-27.488-81.060-82.868-146.547-154.463-186.438l-1.697-0.868c7.68 7.253 17.92 16.64 14.080 17.92-32-19.2-26.453-20.48-31.147-28.587-26.027-10.667-27.733 0.853-45.227 0-49.493-26.453-58.88-23.467-104.107-40.533l2.133 9.813c-32.853-10.667-38.4 4.267-73.813 0-2.133-1.707 11.52-5.973 22.613-7.68-31.573 4.267-29.867-5.973-61.013 1.28 7.253-5.547 15.36-8.96 23.467-13.653-25.6 1.707-61.44 14.933-50.347 2.987-42.24 19.2-116.907 45.653-158.72 84.907l-1.28-9.387c-19.2 23.040-83.627 68.693-88.747 98.56l-5.547 1.28c-9.813 17.067-16.213 36.267-24.32 53.76-12.8 22.187-19.2 8.533-17.067 11.947-25.6 52.053-38.4 96-49.493 132.267 7.68 11.52 0 70.4 2.987 117.76-12.8 232.96 163.84 459.52 356.693 512 28.587 9.813 70.4 9.813 106.24 10.667-42.24-11.947-47.787-6.4-88.747-20.907-29.867-13.653-36.267-29.867-57.173-48.213l8.533 14.933c-41.387-14.507-24.32-17.92-58.027-28.587l8.96-11.52c-13.227-1.28-35.413-22.613-41.387-34.56l-14.507 0.427c-17.493-21.333-26.88-37.12-26.027-49.493l-4.693 8.533c-5.547-8.96-64.853-81.067-34.133-64.427-5.547-5.12-13.227-8.533-21.333-23.467l5.973-7.253c-14.933-18.773-27.307-43.52-26.453-51.2 8.533 10.24 13.653 12.8 19.2 14.080-37.547-92.587-39.68-5.12-68.267-93.867l6.4-0.853c-4.267-6.827-7.68-14.507-11.093-21.76l2.56-25.6c-26.88-31.573-7.68-132.267-3.84-187.733 2.987-23.040 22.613-46.933 37.547-84.48l-8.96-1.707c17.067-30.293 99.84-122.453 138.24-117.76 18.347-23.467-3.84 0-7.68-5.973 40.96-42.24 53.76-29.867 81.067-37.547 29.867-17.067-25.6 6.827-11.52-6.4 51.2-12.8 36.267-29.867 103.253-36.267 6.827 4.267-16.64 5.973-22.187 11.093 42.667-20.907 134.4-15.787 194.56 11.52 69.547 32.853 147.627 128.427 150.613 218.88l3.413 0.853c-1.707 36.267 5.547 77.653-7.253 115.627l8.533-17.92z" /><path fill="rgb(168, 29, 51)" d="M407.040 564.48l-2.133 11.947c11.093 14.933 20.053 31.147 34.133 43.093-10.24-20.053-17.92-28.16-32-55.467zM433.493 563.2c-5.973-6.4-9.387-14.507-13.227-22.187 3.413 13.653 11.093 25.6 18.347 37.547l-5.12-15.36zM900.267 461.653l-2.987 6.4c-4.267 32.427-14.507 64.427-29.44 94.293 17.067-31.147 27.733-65.707 32-100.693zM531.2 5.12c11.52-4.267 28.16-2.133 40.533-5.12-15.787 1.28-31.573 2.133-46.933 4.267l6.4 0.853zM128.427 219.307c2.987 24.32-18.347 34.133 4.693 17.92 12.8-28.16-4.693-7.68-4.267-17.92zM101.547 332.8c5.12-16.64 6.4-26.453 8.533-35.84-14.933 18.773-7.253 22.613-8.533 35.413z" /></g></svg>