<svg width="32" height="32" viewBox="0 0 32 32" fill="none" xmlns="http://www.w3.org/2000/svg">
<path d="M18.5067 16.9066C17.9733 16.9066 18.6133 17.1733 19.3067 17.28C19.4933 17.1466 19.6667 16.9866 19.8267 16.84C19.5685 16.8993 19.2721 16.9333 18.9677 16.9333C18.8053 16.9333 18.6451 16.9236 18.4877 16.9048L18.5067 16.9066H18.5067ZM21.36 16.2C21.6667 15.76 21.8934 15.28 21.9867 14.7866C21.9067 15.1466 21.72 15.4533 21.5467 15.76C20.5467 16.3866 21.4533 15.4 21.5467 15.0133C20.48 16.36 21.4 15.8133 21.36 16.2ZM22.4 13.4666C22.4667 12.5066 22.2134 12.8 22.1334 13.1733C22.2267 13.2266 22.3067 13.84 22.4 13.4666ZM16.5067 0.41333C16.7733 0.466674 17.1067 0.506674 17.0667 0.57333C17.3733 0.506674 17.44 0.439986 16.4933 0.41333H16.5067ZM17.0667 0.57333L16.8667 0.61333L17.0533 0.599986V0.57333H17.0667Z" fill="white"/>
<path d="M25.8934 13.8267C25.92 14.68 25.6267 15.0933 25.3867 15.8267L24.9201 16.0667C24.5467 16.7867 24.9601 16.5333 24.6934 17.1067C24.1068 17.6267 22.9068 18.7333 22.5334 18.84C22.2668 18.84 22.7201 18.5067 22.7868 18.3867C22.0001 18.92 22.1468 19.1867 20.9601 19.52L20.9201 19.44C17.9601 20.8267 13.8534 18.08 13.9201 14.32C13.8801 14.5467 13.8267 14.4933 13.7601 14.5867C13.7493 14.4668 13.7432 14.3273 13.7432 14.1865C13.7432 12.3177 14.8262 10.7018 16.3988 9.93235L16.4268 9.92C17.0128 9.61888 17.7056 9.44238 18.4395 9.44238C19.5767 9.44238 20.6149 9.86603 21.4049 10.5642L21.4001 10.56C20.5778 9.50072 19.3043 8.82557 17.8731 8.82557C17.838 8.82557 17.8031 8.82597 17.7682 8.82678L17.7734 8.82669C16.2001 8.84003 14.7334 9.84003 14.2401 10.92C13.4401 11.4267 13.3467 12.88 13.0001 13.1334C12.5201 16.6 13.8801 18.0934 16.1734 19.8534C16.5334 20.1067 16.2801 20.1334 16.3334 20.32C15.5311 19.934 14.8528 19.4135 14.2997 18.7807L14.2934 18.7734C14.6001 19.2134 14.9201 19.6534 15.3601 19.9867C14.6267 19.7467 13.6667 18.2534 13.3867 18.1867C14.6267 20.4001 18.4267 22.0801 20.4001 21.2534C20.2251 21.2666 20.021 21.2741 19.8152 21.2741C18.9142 21.2741 18.0468 21.1299 17.2349 20.8634L17.2934 20.88C16.8534 20.6667 16.2667 20.2 16.36 20.12C17.2451 20.5024 18.2757 20.7249 19.3582 20.7249C21.2098 20.7249 22.9093 20.0742 24.2407 18.989L24.2267 19.0001C24.8133 18.5334 25.4667 17.7467 25.6533 17.7334C25.3867 18.1601 25.7067 17.9468 25.4933 18.3201C26.08 17.3601 25.2267 17.9201 26.1067 16.6667L26.4267 17.1067C26.3067 16.3067 27.4133 15.3467 27.3067 14.0934C27.56 13.6934 27.5733 14.4934 27.3067 15.3867C27.6933 14.4001 27.4133 14.2534 27.5067 13.4401C27.6133 13.7067 27.7467 14.0001 27.8133 14.2801C27.5733 13.3467 28.08 12.6801 28.1867 12.1467C28.0667 12.0801 27.8133 12.5467 27.76 11.4401C27.76 10.9467 27.8934 11.1734 27.9467 11.0667C27.84 11.0001 27.6 10.6401 27.44 9.92006C27.5467 9.74672 27.7334 10.3601 27.8934 10.3734C27.7867 9.81341 27.6267 9.37341 27.6267 8.93341C27.1734 8.02675 27.4667 9.06675 27.0934 8.53341C26.64 7.08007 27.4934 8.20006 27.5467 7.54675C28.2667 8.57341 28.6667 10.1601 28.8534 10.8268C28.72 10.0268 28.48 9.22675 28.2 8.4801C28.4134 8.57344 27.8534 6.82675 28.48 7.98675C27.621 5.45363 25.8904 3.40716 23.6531 2.16056L23.6 2.13344C23.84 2.3601 24.16 2.65344 24.04 2.69344C23.04 2.09344 23.2134 2.05344 23.0667 1.8001C22.2533 1.46675 22.2 1.82675 21.6533 1.8001C20.1067 0.97344 19.8133 1.06675 18.4 0.53344L18.4667 0.840096C17.44 0.506752 17.2667 0.97344 16.16 0.840096C16.0933 0.786752 16.52 0.65344 16.8667 0.600096C15.88 0.73344 15.9333 0.41344 14.96 0.640096C15.1867 0.466752 15.44 0.360096 15.6933 0.21344C14.8933 0.266784 13.7733 0.680096 14.12 0.306784C12.8 0.906784 10.4667 1.73344 9.16 2.96013L9.12 2.66678C8.52 3.38678 6.50666 4.81344 6.34666 5.74678L6.17331 5.78678C5.86666 6.32013 5.66666 6.92013 5.41331 7.46678C5.01331 8.16013 4.81331 7.73344 4.87997 7.84013C4.07997 9.46678 3.67997 10.8401 3.33331 11.9735C3.57331 12.3335 3.33331 14.1735 3.42666 15.6535C3.02666 22.9335 8.54666 30.0135 14.5733 31.6535C15.4667 31.9601 16.7733 31.9601 17.8933 31.9868C16.5733 31.6135 16.4 31.7868 15.12 31.3335C14.1866 30.9068 13.9866 30.4001 13.3333 29.8268L13.6 30.2935C12.3066 29.8401 12.84 29.7335 11.7866 29.4001L12.0666 29.0401C11.6533 29.0001 10.96 28.3335 10.7733 27.9601L10.3199 27.9735C9.77328 27.3068 9.47994 26.8135 9.50659 26.4268L9.35994 26.6935C9.18659 26.4135 7.33328 24.1601 8.29328 24.6801C8.11994 24.5201 7.87994 24.4135 7.62663 23.9468L7.81328 23.7201C7.34663 23.1335 6.95994 22.3601 6.98663 22.1201C7.25328 22.4401 7.41328 22.5201 7.58663 22.5601C6.41328 19.6668 6.34663 22.4001 5.45328 19.6268L5.65328 19.6001C5.51994 19.3868 5.41328 19.1468 5.30663 18.9201L5.38663 18.1201C4.54663 17.1335 5.14663 13.9868 5.26663 12.2535C5.35997 11.5335 5.97328 10.7868 6.43997 9.61347L6.15997 9.56013C6.69331 8.61347 9.27997 5.73347 10.48 5.88013C11.0533 5.14678 10.36 5.88013 10.24 5.69347C11.52 4.37347 11.92 4.76013 12.7733 4.52013C13.7067 3.98678 11.9733 4.73347 12.4133 4.32013C14.0133 3.92013 13.5467 3.38678 15.64 3.18678C15.8533 3.32013 15.12 3.37344 14.9466 3.53344C16.28 2.8801 19.1466 3.0401 21.0266 3.89344C23.2 4.9201 25.64 7.90678 25.7333 10.7334L25.8399 10.7601C25.7866 11.8934 26.0133 13.1868 25.6133 14.3734L25.8799 13.8134L25.8934 13.8267Z" fill="white"/>
<path d="M12.72 17.64L12.6534 18.0133C13 18.48 13.28 18.9867 13.72 19.36C13.4 18.7333 13.16 18.48 12.72 17.6267V17.64ZM13.5467 17.6C13.36 17.4 13.2533 17.1467 13.1333 16.9067C13.24 17.3333 13.48 17.7067 13.7067 18.08L13.5467 17.6ZM28.1334 14.4267L28.04 14.6267C27.9067 15.64 27.5867 16.64 27.12 17.5733C27.6534 16.6 27.9867 15.52 28.12 14.4267H28.1334ZM16.6 0.16C16.96 0.0266562 17.48 0.0933437 17.8667 0C17.3733 0.04 16.88 0.0666563 16.4 0.133344L16.6 0.16ZM4.01337 6.85334C4.10672 7.61334 3.44003 7.92 4.16003 7.41334C4.56003 6.53334 4.01337 7.17334 4.02669 6.85334H4.01337ZM3.17337 10.4C3.33337 9.88 3.37337 9.57334 3.44003 9.28C2.97337 9.86666 3.21337 9.98666 3.17337 10.3867V10.4Z" fill="white"/>
</svg>
