<svg width="267" height="267" viewBox="0 0 267 267" fill="none" xmlns="http://www.w3.org/2000/svg">
<path d="M266.626 133.506C266.626 59.9813 207.022 0.375824 133.498 0.375824C60.0067 0.375824 0.426408 59.9312 0.374268 133.412V236.433C0.413818 253.118 13.9455 266.624 30.6403 266.624H133.552C207.052 266.595 266.626 207.011 266.626 133.506Z" fill="white"/>
<path d="M77.1263 142.098H124.971V189.942C124.971 216.353 103.537 237.787 77.1263 237.787C50.716 237.787 29.2816 216.353 29.2816 189.942C29.2816 163.532 50.716 142.098 77.1263 142.098Z" stroke="#3C6EB4" stroke-width="29.21"/>
<path d="M139.607 127.529V189.875C139.607 224.379 111.632 252.355 77.1268 252.355C71.8918 252.355 68.1703 251.764 63.3244 250.498C56.2585 248.649 50.484 242.855 50.4816 236.117C50.4816 227.971 56.3939 222.047 65.2319 222.047C69.4382 222.047 70.9645 222.854 77.1268 222.854C95.3184 222.854 110.074 208.119 110.106 189.928V161.271C110.106 158.703 108.02 156.623 105.448 156.623L83.7825 156.618C75.7103 156.618 69.1884 150.18 69.1884 142.086C69.1841 133.941 75.7772 127.529 83.9365 127.529" fill="#294172"/>
<path d="M243.655 243.584L243.655 238.053L241.126 243.851L238.665 238.053L238.665 243.584H237.247V234.849H238.734L241.168 240.43L243.565 234.849H245.07V243.584H243.655ZM233.322 236.312V243.584H231.839V236.312H229.354V234.849H235.804V236.312" fill="#3C6EB4"/>
</svg>
