<svg width="42" height="42" viewBox="0 0 42 42" fill="none" xmlns="http://www.w3.org/2000/svg">
<rect width="42" height="42" fill="white"/>
<path d="M21 5C15.477 5 11 9.477 11 15C11 25 21 37 21 37C21 37 31 25 31 15C31 9.477 26.523 5 21 5ZM21 21.125C17.617 21.125 14.875 18.383 14.875 15C14.875 11.617 17.617 8.875 21 8.875C24.383 8.875 27.125 11.617 27.125 15C27.125 18.383 24.383 21.125 21 21.125ZM17.125 15C17.125 12.86 18.86 11.125 21 11.125C23.14 11.125 24.875 12.86 24.875 15C24.875 17.14 23.14 18.875 21 18.875C18.86 18.875 17.125 17.14 17.125 15Z" fill="#FF375C"/>
</svg>
