<svg width="2500" height="2461" viewBox="0 0 2500 2461" fill="none" xmlns="http://www.w3.org/2000/svg">
<path d="M2468 49.9336C2599.91 181.77 2234.22 761.34 2172.39 823.195C2110.58 884.924 1953.55 828.127 1821.71 696.242C1689.79 564.406 1632.97 407.346 1694.79 345.52C1756.58 283.674 2336.11 -81.9902 2468 49.9239V49.9336ZM618.213 189.426C416.826 75.168 130.264 -51.9414 39.1113 39.2305C-53.252 131.555 78.5058 424.562 193.975 626.311C296.819 447.641 442.641 297.473 618.213 189.426" fill="white"/>
<path d="M2266.83 777.727C2285.37 840.617 2282.04 892.57 2251.96 922.59C2181.72 992.863 1991.96 918.059 1820.91 755.266C1808.79 744.439 1796.98 733.275 1785.49 721.789C1723.63 659.914 1675.51 594.055 1644.73 533.4C1584.81 425.92 1569.82 330.998 1615.11 285.705C1639.79 261.057 1679.27 254.338 1727.43 263C1758.84 243.137 1795.92 221.008 1836.57 198.342C1671.25 112.111 1483.29 63.4102 1283.91 63.4102C622.588 63.4102 86.4648 599.445 86.4648 1260.82C86.4648 1922.08 622.598 2458.19 1283.91 2458.19C1945.23 2458.19 2481.33 1922.08 2481.33 1260.82C2481.33 1047.25 2425.27 846.984 2327.35 673.361C2306.19 711.984 2285.62 747.365 2266.83 777.727" fill="white"/>
</svg>
