<svg width="48" height="54" viewBox="0 0 48 54" fill="none" xmlns="http://www.w3.org/2000/svg">
<rect width="48" height="51" rx="6" fill="#252266"/>
<path d="M8.62793 41.1479C7.9043 40.9399 7.37695 40.6851 7.0459 40.3833C6.71777 40.0786 6.55371 39.7036 6.55371 39.2583C6.55371 38.7544 6.75439 38.3384 7.15576 38.0103C7.56006 37.6792 8.08447 37.5137 8.729 37.5137C9.16846 37.5137 9.55957 37.5986 9.90234 37.7686C10.248 37.9385 10.5146 38.1729 10.7021 38.4717C10.8926 38.7705 10.9878 39.0972 10.9878 39.4517H10.1396C10.1396 39.0649 10.0166 38.7617 9.77051 38.542C9.52441 38.3193 9.17725 38.208 8.729 38.208C8.31299 38.208 7.98779 38.3003 7.75342 38.4849C7.52197 38.6665 7.40625 38.9199 7.40625 39.2451C7.40625 39.5059 7.51611 39.7271 7.73584 39.9087C7.9585 40.0874 8.33496 40.2515 8.86523 40.4009C9.39844 40.5503 9.81445 40.7158 10.1133 40.8975C10.415 41.0762 10.6377 41.2856 10.7812 41.5259C10.9277 41.7661 11.001 42.0488 11.001 42.374C11.001 42.8926 10.7988 43.3086 10.3945 43.6221C9.99023 43.9326 9.44971 44.0879 8.77295 44.0879C8.3335 44.0879 7.92334 44.0044 7.54248 43.8374C7.16162 43.6675 6.86719 43.436 6.65918 43.1431C6.4541 42.8501 6.35156 42.5176 6.35156 42.1455H7.19971C7.19971 42.5322 7.3418 42.8384 7.62598 43.064C7.91309 43.2866 8.29541 43.3979 8.77295 43.3979C9.21826 43.3979 9.55957 43.3071 9.79688 43.1255C10.0342 42.9438 10.1528 42.6963 10.1528 42.3828C10.1528 42.0693 10.043 41.8276 9.82324 41.6577C9.60352 41.4849 9.20508 41.3149 8.62793 41.1479ZM13.8662 43.4243C14.1562 43.4243 14.4097 43.3364 14.6265 43.1606C14.8433 42.9849 14.9634 42.7651 14.9868 42.5015H15.7559C15.7412 42.7739 15.6475 43.0332 15.4746 43.2793C15.3018 43.5254 15.0703 43.7217 14.7803 43.8682C14.4932 44.0146 14.1885 44.0879 13.8662 44.0879C13.2188 44.0879 12.7031 43.8726 12.3193 43.4419C11.9385 43.0083 11.748 42.4165 11.748 41.6665V41.5303C11.748 41.0674 11.833 40.6558 12.0029 40.2954C12.1729 39.9351 12.416 39.6553 12.7324 39.4561C13.0518 39.2568 13.4282 39.1572 13.8618 39.1572C14.395 39.1572 14.8374 39.3169 15.189 39.6362C15.5435 39.9556 15.7324 40.3701 15.7559 40.8799H14.9868C14.9634 40.5723 14.8462 40.3203 14.6353 40.124C14.4272 39.9248 14.1694 39.8252 13.8618 39.8252C13.4487 39.8252 13.1279 39.9746 12.8994 40.2734C12.6738 40.5693 12.561 40.9985 12.561 41.561V41.7148C12.561 42.2627 12.6738 42.6846 12.8994 42.9805C13.125 43.2764 13.4473 43.4243 13.8662 43.4243ZM17.4829 39.8208C17.8433 39.3784 18.312 39.1572 18.8892 39.1572C19.894 39.1572 20.4009 39.7241 20.4097 40.8579V44H19.5967V40.8535C19.5938 40.5107 19.5146 40.2573 19.3594 40.0933C19.207 39.9292 18.9683 39.8472 18.6431 39.8472C18.3794 39.8472 18.1479 39.9175 17.9487 40.0581C17.7495 40.1987 17.5942 40.3833 17.4829 40.6118V44H16.6699V37.25H17.4829V39.8208ZM23.6001 44.0879C22.9556 44.0879 22.4312 43.877 22.0269 43.4551C21.6226 43.0303 21.4204 42.4634 21.4204 41.7544V41.605C21.4204 41.1333 21.5098 40.7129 21.6885 40.3438C21.8701 39.9717 22.1221 39.6816 22.4443 39.4736C22.7695 39.2627 23.1211 39.1572 23.499 39.1572C24.1172 39.1572 24.5977 39.3608 24.9404 39.7681C25.2832 40.1753 25.4546 40.7583 25.4546 41.5171V41.8555H22.2334C22.2451 42.3242 22.3813 42.7036 22.6421 42.9937C22.9058 43.2808 23.2397 43.4243 23.644 43.4243C23.9312 43.4243 24.1743 43.3657 24.3735 43.2485C24.5728 43.1313 24.7471 42.9761 24.8965 42.7827L25.3931 43.1694C24.9946 43.7817 24.397 44.0879 23.6001 44.0879ZM23.499 39.8252C23.1709 39.8252 22.8955 39.9453 22.6729 40.1855C22.4502 40.4229 22.3125 40.7568 22.2598 41.1875H24.6416V41.126C24.6182 40.7129 24.5068 40.3936 24.3076 40.168C24.1084 39.9395 23.8389 39.8252 23.499 39.8252ZM26.2017 41.583C26.2017 40.8535 26.3745 40.2676 26.7202 39.8252C27.0659 39.3799 27.5186 39.1572 28.0781 39.1572C28.6348 39.1572 29.0757 39.3477 29.4009 39.7285V37.25H30.2139V44H29.4668L29.4272 43.4902C29.1021 43.8887 28.6494 44.0879 28.0693 44.0879C27.5186 44.0879 27.0688 43.8623 26.7202 43.4111C26.3745 42.96 26.2017 42.3711 26.2017 41.6445V41.583ZM27.0146 41.6753C27.0146 42.2144 27.126 42.6362 27.3486 42.9409C27.5713 43.2456 27.8789 43.3979 28.2715 43.3979C28.7871 43.3979 29.1636 43.1665 29.4009 42.7036V40.5195C29.1577 40.0713 28.7842 39.8472 28.2803 39.8472C27.8818 39.8472 27.5713 40.001 27.3486 40.3086C27.126 40.6162 27.0146 41.0718 27.0146 41.6753ZM34.415 43.5298C34.0986 43.9019 33.6343 44.0879 33.022 44.0879C32.5151 44.0879 32.1284 43.9414 31.8618 43.6484C31.5981 43.3525 31.4648 42.916 31.4619 42.3389V39.2451H32.2749V42.3169C32.2749 43.0376 32.5679 43.3979 33.1538 43.3979C33.7749 43.3979 34.188 43.1665 34.3931 42.7036V39.2451H35.2061V44H34.4326L34.415 43.5298ZM37.3286 44H36.5156V37.25H37.3286V44ZM40.6069 44.0879C39.9624 44.0879 39.438 43.877 39.0337 43.4551C38.6294 43.0303 38.4272 42.4634 38.4272 41.7544V41.605C38.4272 41.1333 38.5166 40.7129 38.6953 40.3438C38.877 39.9717 39.1289 39.6816 39.4512 39.4736C39.7764 39.2627 40.1279 39.1572 40.5059 39.1572C41.124 39.1572 41.6045 39.3608 41.9473 39.7681C42.29 40.1753 42.4614 40.7583 42.4614 41.5171V41.8555H39.2402C39.252 42.3242 39.3882 42.7036 39.6489 42.9937C39.9126 43.2808 40.2466 43.4243 40.6509 43.4243C40.938 43.4243 41.1812 43.3657 41.3804 43.2485C41.5796 43.1313 41.7539 42.9761 41.9033 42.7827L42.3999 43.1694C42.0015 43.7817 41.4038 44.0879 40.6069 44.0879ZM40.5059 39.8252C40.1777 39.8252 39.9023 39.9453 39.6797 40.1855C39.457 40.4229 39.3193 40.7568 39.2666 41.1875H41.6484V41.126C41.625 40.7129 41.5137 40.3936 41.3145 40.168C41.1152 39.9395 40.8457 39.8252 40.5059 39.8252Z" fill="#F2F2F2"/>
<path d="M19 16H23V20H19V16ZM25 16H29V20H25V16ZM31 16H35V20H31V16ZM13 28H17V32H13V28ZM19 28H23V32H19V28ZM25 28H29V32H25V28ZM19 22H23V26H19V22ZM25 22H29V26H25V22ZM31 22H35V26H31V22ZM13 22H17V26H13V22ZM35 4V6H31V4H17V6H13V4H9V36H39V4H35ZM37 34H11V12H37V34Z" fill="#F2F2F2"/>
</svg>
