<svg width="48" height="54" viewBox="0 0 48 54" fill="none" xmlns="http://www.w3.org/2000/svg">
<rect width="48" height="51" rx="6" fill="#252266"/>
<path d="M10.6279 41.1479C9.9043 40.9399 9.37695 40.6851 9.0459 40.3833C8.71777 40.0786 8.55371 39.7036 8.55371 39.2583C8.55371 38.7544 8.75439 38.3384 9.15576 38.0103C9.56006 37.6792 10.0845 37.5137 10.729 37.5137C11.1685 37.5137 11.5596 37.5986 11.9023 37.7686C12.248 37.9385 12.5146 38.1729 12.7021 38.4717C12.8926 38.7705 12.9878 39.0972 12.9878 39.4517H12.1396C12.1396 39.0649 12.0166 38.7617 11.7705 38.542C11.5244 38.3193 11.1772 38.208 10.729 38.208C10.313 38.208 9.98779 38.3003 9.75342 38.4849C9.52197 38.6665 9.40625 38.9199 9.40625 39.2451C9.40625 39.5059 9.51611 39.7271 9.73584 39.9087C9.9585 40.0874 10.335 40.2515 10.8652 40.4009C11.3984 40.5503 11.8145 40.7158 12.1133 40.8975C12.415 41.0762 12.6377 41.2856 12.7812 41.5259C12.9277 41.7661 13.001 42.0488 13.001 42.374C13.001 42.8926 12.7988 43.3086 12.3945 43.6221C11.9902 43.9326 11.4497 44.0879 10.7729 44.0879C10.3335 44.0879 9.92334 44.0044 9.54248 43.8374C9.16162 43.6675 8.86719 43.436 8.65918 43.1431C8.4541 42.8501 8.35156 42.5176 8.35156 42.1455H9.19971C9.19971 42.5322 9.3418 42.8384 9.62598 43.064C9.91309 43.2866 10.2954 43.3979 10.7729 43.3979C11.2183 43.3979 11.5596 43.3071 11.7969 43.1255C12.0342 42.9438 12.1528 42.6963 12.1528 42.3828C12.1528 42.0693 12.043 41.8276 11.8232 41.6577C11.6035 41.4849 11.2051 41.3149 10.6279 41.1479ZM15.9321 44.0879C15.2876 44.0879 14.7632 43.877 14.3589 43.4551C13.9546 43.0303 13.7524 42.4634 13.7524 41.7544V41.605C13.7524 41.1333 13.8418 40.7129 14.0205 40.3438C14.2021 39.9717 14.4541 39.6816 14.7764 39.4736C15.1016 39.2627 15.4531 39.1572 15.8311 39.1572C16.4492 39.1572 16.9297 39.3608 17.2725 39.7681C17.6152 40.1753 17.7866 40.7583 17.7866 41.5171V41.8555H14.5654C14.5771 42.3242 14.7134 42.7036 14.9741 42.9937C15.2378 43.2808 15.5718 43.4243 15.9761 43.4243C16.2632 43.4243 16.5063 43.3657 16.7056 43.2485C16.9048 43.1313 17.0791 42.9761 17.2285 42.7827L17.7251 43.1694C17.3267 43.7817 16.729 44.0879 15.9321 44.0879ZM15.8311 39.8252C15.5029 39.8252 15.2275 39.9453 15.0049 40.1855C14.7822 40.4229 14.6445 40.7568 14.5918 41.1875H16.9736V41.126C16.9502 40.7129 16.8389 40.3936 16.6396 40.168C16.4404 39.9395 16.1709 39.8252 15.8311 39.8252ZM19.8345 38.0938V39.2451H20.7222V39.8735H19.8345V42.8223C19.8345 43.0127 19.874 43.1562 19.9531 43.2529C20.0322 43.3467 20.167 43.3936 20.3574 43.3936C20.4512 43.3936 20.5801 43.376 20.7441 43.3408V44C20.5303 44.0586 20.3223 44.0879 20.1201 44.0879C19.7568 44.0879 19.4829 43.978 19.2983 43.7583C19.1138 43.5386 19.0215 43.2266 19.0215 42.8223V39.8735H18.1558V39.2451H19.0215V38.0938H19.8345ZM22.7788 38.0938V39.2451H23.6665V39.8735H22.7788V42.8223C22.7788 43.0127 22.8184 43.1562 22.8975 43.2529C22.9766 43.3467 23.1113 43.3936 23.3018 43.3936C23.3955 43.3936 23.5244 43.376 23.6885 43.3408V44C23.4746 44.0586 23.2666 44.0879 23.0645 44.0879C22.7012 44.0879 22.4272 43.978 22.2427 43.7583C22.0581 43.5386 21.9658 43.2266 21.9658 42.8223V39.8735H21.1001V39.2451H21.9658V38.0938H22.7788ZM25.5034 44H24.6904V39.2451H25.5034V44ZM24.6245 37.9839C24.6245 37.8521 24.6641 37.7407 24.7432 37.6499C24.8252 37.5591 24.9453 37.5137 25.1035 37.5137C25.2617 37.5137 25.3818 37.5591 25.4639 37.6499C25.5459 37.7407 25.5869 37.8521 25.5869 37.9839C25.5869 38.1157 25.5459 38.2256 25.4639 38.3135C25.3818 38.4014 25.2617 38.4453 25.1035 38.4453C24.9453 38.4453 24.8252 38.4014 24.7432 38.3135C24.6641 38.2256 24.6245 38.1157 24.6245 37.9839ZM27.5776 39.2451L27.604 39.8428C27.9673 39.3857 28.4419 39.1572 29.0278 39.1572C30.0327 39.1572 30.5396 39.7241 30.5483 40.8579V44H29.7354V40.8535C29.7324 40.5107 29.6533 40.2573 29.498 40.0933C29.3457 39.9292 29.1069 39.8472 28.7817 39.8472C28.5181 39.8472 28.2866 39.9175 28.0874 40.0581C27.8882 40.1987 27.7329 40.3833 27.6216 40.6118V44H26.8086V39.2451H27.5776ZM31.5811 41.583C31.5811 40.8418 31.7524 40.2529 32.0952 39.8164C32.438 39.377 32.8921 39.1572 33.4575 39.1572C34.0376 39.1572 34.4902 39.3623 34.8154 39.7725L34.855 39.2451H35.5977V43.8857C35.5977 44.501 35.4146 44.9858 35.0483 45.3403C34.6851 45.6948 34.1958 45.8721 33.5806 45.8721C33.2378 45.8721 32.9023 45.7988 32.5742 45.6523C32.2461 45.5059 31.9956 45.3052 31.8228 45.0503L32.2446 44.5625C32.5933 44.9932 33.0195 45.2085 33.5234 45.2085C33.9189 45.2085 34.2266 45.0972 34.4463 44.8745C34.6689 44.6519 34.7803 44.3384 34.7803 43.9341V43.5254C34.4551 43.9004 34.0112 44.0879 33.4487 44.0879C32.8921 44.0879 32.4409 43.8638 32.0952 43.4155C31.7524 42.9673 31.5811 42.3564 31.5811 41.583ZM32.3984 41.6753C32.3984 42.2114 32.5083 42.6333 32.728 42.9409C32.9478 43.2456 33.2554 43.3979 33.6509 43.3979C34.1636 43.3979 34.54 43.165 34.7803 42.6992V40.5283C34.5312 40.0742 34.1577 39.8472 33.6597 39.8472C33.2642 39.8472 32.9551 40.001 32.7324 40.3086C32.5098 40.6162 32.3984 41.0718 32.3984 41.6753ZM39.5967 42.7388C39.5967 42.519 39.5132 42.3491 39.3462 42.229C39.1821 42.106 38.8936 42.0005 38.4805 41.9126C38.0703 41.8247 37.7437 41.7192 37.5005 41.5962C37.2603 41.4731 37.0815 41.3267 36.9644 41.1567C36.8501 40.9868 36.793 40.7847 36.793 40.5503C36.793 40.1606 36.957 39.8311 37.2852 39.5615C37.6162 39.292 38.0381 39.1572 38.5508 39.1572C39.0898 39.1572 39.5264 39.2964 39.8604 39.5747C40.1973 39.853 40.3657 40.209 40.3657 40.6426H39.5483C39.5483 40.4199 39.4531 40.228 39.2627 40.0669C39.0752 39.9058 38.8379 39.8252 38.5508 39.8252C38.2549 39.8252 38.0234 39.8896 37.8564 40.0186C37.6895 40.1475 37.606 40.3159 37.606 40.5239C37.606 40.7202 37.6836 40.8682 37.8389 40.9678C37.9941 41.0674 38.2739 41.1626 38.6782 41.2534C39.0854 41.3442 39.415 41.4526 39.667 41.5786C39.9189 41.7046 40.105 41.8569 40.2251 42.0356C40.3481 42.2114 40.4097 42.4268 40.4097 42.6816C40.4097 43.1064 40.2397 43.4478 39.8999 43.7056C39.5601 43.9604 39.1191 44.0879 38.5771 44.0879C38.1963 44.0879 37.8594 44.0205 37.5664 43.8857C37.2734 43.751 37.0435 43.5635 36.8765 43.3232C36.7124 43.0801 36.6304 42.8179 36.6304 42.5366H37.4434C37.458 42.8091 37.5664 43.0259 37.7686 43.187C37.9736 43.3452 38.2432 43.4243 38.5771 43.4243C38.8848 43.4243 39.1309 43.3628 39.3154 43.2397C39.5029 43.1138 39.5967 42.9468 39.5967 42.7388Z" fill="#F2F2F2"/>
<path d="M19.365 26.564L20.656 24.757L19.242 23.343L17.435 24.634C17.1 24.447 16.741 24.297 16.364 24.19L15.999 22H13.999L13.634 24.19C13.257 24.297 12.898 24.446 12.563 24.634L10.756 23.343L9.342 24.757L10.633 26.564C10.446 26.899 10.296 27.258 10.19 27.635L8 28V30L10.19 30.365C10.297 30.742 10.446 31.101 10.634 31.436L9.343 33.243L10.757 34.657L12.564 33.366C12.899 33.553 13.258 33.703 13.635 33.81L14 36H16L16.365 33.81C16.742 33.703 17.101 33.554 17.436 33.366L19.243 34.657L20.657 33.243L19.366 31.436C19.553 31.101 19.703 30.742 19.81 30.365L22 30V28L19.81 27.635C19.703 27.258 19.554 26.899 19.366 26.564H19.365ZM14.999 31C13.894 31 12.999 30.105 12.999 29C12.999 27.895 13.894 27 14.999 27C16.104 27 16.999 27.895 16.999 29C16.999 30.105 16.104 31 14.999 31ZM39.999 16V14L37.893 13.617C37.854 13.366 37.805 13.118 37.745 12.874L39.544 11.715L38.779 9.867L36.687 10.319C36.555 10.103 36.414 9.893 36.265 9.69L37.484 7.929L36.07 6.515L34.309 7.734C34.106 7.585 33.896 7.444 33.68 7.312L34.132 5.22L32.284 4.455L31.125 6.254C30.881 6.195 30.633 6.145 30.382 6.106L29.999 4H27.999L27.616 6.106C27.365 6.145 27.117 6.194 26.873 6.254L25.714 4.455L23.866 5.22L24.318 7.312C24.102 7.444 23.892 7.585 23.689 7.734L21.928 6.515L20.514 7.929L21.733 9.69C21.584 9.893 21.443 10.103 21.311 10.319L19.219 9.867L18.454 11.715L20.253 12.874C20.194 13.118 20.144 13.366 20.105 13.617L17.999 14V16L20.105 16.383C20.144 16.634 20.193 16.882 20.253 17.126L18.454 18.285L19.219 20.133L21.311 19.681C21.443 19.897 21.584 20.107 21.733 20.31L20.514 22.071L21.928 23.485L23.689 22.266C23.892 22.415 24.102 22.556 24.318 22.688L23.866 24.78L25.714 25.545L26.873 23.746C27.117 23.805 27.365 23.855 27.616 23.894L27.999 26H29.999L30.382 23.894C30.633 23.855 30.881 23.806 31.125 23.746L32.284 25.545L34.132 24.78L33.68 22.688C33.896 22.556 34.106 22.415 34.309 22.266L36.07 23.485L37.484 22.071L36.265 20.31C36.414 20.107 36.555 19.897 36.687 19.681L38.779 20.133L39.544 18.285L37.745 17.126C37.804 16.882 37.854 16.634 37.893 16.383L39.999 16V16ZM28.999 19.35C26.597 19.35 24.649 17.402 24.649 15C24.649 12.598 26.597 10.65 28.999 10.65C31.401 10.65 33.349 12.598 33.349 15C33.349 17.402 31.401 19.35 28.999 19.35Z" fill="#F2F2F2"/>
</svg>
