<?xml version="1.0" encoding="utf-8"?>
<!-- Generator: Adobe Illustrator 22.1.0, SVG Export Plug-In . SVG Version: 6.00 Build 0)  -->
<svg version="1.1" id="Layer_1" xmlns="http://www.w3.org/2000/svg" xmlns:xlink="http://www.w3.org/1999/xlink" x="0px" y="0px"
	 viewBox="0 0 32 32" style="enable-background:new 0 0 32 32;" xml:space="preserve">
<style type="text/css">
	.st0{fill:#E95420;}
</style>
<g transform="scale(0.03125 0.03125)">
	<path class="st0" d="M512,0c282.6,0,512,229.4,512,512s-229.4,512-512,512S0,794.6,0,512S229.4,0,512,0z M651.9,754.3
		c-32.7,18.8-43.9,60.7-25,93.4c18.8,32.6,60.7,43.9,93.4,24.9c32.7-18.8,43.9-60.7,25-93.4C726.4,746.6,684.6,735.4,651.9,754.3z
		 M512,711.7c-30.1,0-58.6-6.7-84.1-18.6l-47.5,85.1C420.1,797.8,464.8,809,512,809c27.6,0,54.1-3.9,79.4-10.9
		c4.4-27.4,20.7-52.7,46.7-67.7c26-15,56-16.5,81.9-6.7c50.6-49.6,83.5-117.3,88.3-192.6l-97.5-1.4
		C701.9,631.7,616.3,711.7,512,711.7z M312.3,512c0-67.5,33.6-127.2,84.9-163.4l-49.9-83.7C287.4,304.6,243,366,224.4,437.1
		c21.6,17.2,35.4,44.1,35.4,74.2c0,30-13.8,56.3-35.4,74.2c18.6,71,63,132.4,122.9,172.1l49.9-83.8
		C345.9,638.7,312.3,579.2,312.3,512z M163.8,443.6c-37.8,0-68.4,30.6-68.4,68.4s30.6,68.4,68.4,68.4s68.3-30.6,68.3-68.4
		S201.6,443.6,163.8,443.6z M512,312.3c104.3,0,189.9,80,198.8,182l97.5-1.5c-4.8-75.3-37.8-142.9-88.3-192.7
		c-26,9.9-56,8.3-81.9-6.6c-26-15-42.2-40.3-46.7-67.9C566,218.9,539.6,215,512,215c-47.4,0-91.9,11.1-131.6,30.7l47.5,85.1
		C453.5,319,482,312.3,512,312.3L512,312.3z M651.9,269.6c32.6,18.9,74.5,7.7,93.4-25c18.8-32.6,7.7-74.5-25.1-93.4
		c-32.6-18.8-74.5-7.6-93.4,25.1C608,208.9,619.1,250.8,651.9,269.6z"/>
</g>
</svg>
