<svg width="32" height="32" viewBox="0 0 32 32" fill="none" xmlns="http://www.w3.org/2000/svg">
<path d="M16 0C24.8313 0 32 7.16875 32 16C32 24.8313 24.8313 32 16 32C7.16875 32 0 24.8313 0 16C0 7.16875 7.16875 0 16 0ZM20.3719 23.5719C19.35 24.1594 19 25.4688 19.5906 26.4906C20.1781 27.5094 21.4875 27.8625 22.5094 27.2687C23.5312 26.6812 23.8812 25.3719 23.2906 24.35C22.7 23.3313 21.3938 22.9812 20.3719 23.5719ZM16 22.2406C15.0594 22.2406 14.1687 22.0312 13.3719 21.6594L11.8875 24.3188C13.1281 24.9313 14.525 25.2812 16 25.2812C16.8625 25.2812 17.6906 25.1594 18.4813 24.9406C18.6188 24.0844 19.1281 23.2938 19.9406 22.825C20.7531 22.3563 21.6906 22.3094 22.5 22.6156C24.0812 21.0656 25.1094 18.95 25.2594 16.5969L22.2125 16.5531C21.9344 19.7406 19.2594 22.2406 16 22.2406ZM9.75937 16C9.75937 13.8906 10.8094 12.025 12.4125 10.8938L10.8531 8.27812C8.98125 9.51875 7.59375 11.4375 7.0125 13.6594C7.6875 14.1969 8.11875 15.0375 8.11875 15.9781C8.11875 16.9156 7.6875 17.7375 7.0125 18.2969C7.59375 20.5156 8.98125 22.4344 10.8531 23.675L12.4125 21.0562C10.8094 19.9594 9.75937 18.1 9.75937 16ZM5.11875 13.8625C3.9375 13.8625 2.98125 14.8188 2.98125 16C2.98125 17.1812 3.9375 18.1375 5.11875 18.1375C6.3 18.1375 7.25313 17.1812 7.25313 16C7.25313 14.8188 6.3 13.8625 5.11875 13.8625ZM16 9.75937C19.2594 9.75937 21.9344 12.2594 22.2125 15.4469L25.2594 15.4C25.1094 13.0469 24.0781 10.9344 22.5 9.37813C21.6875 9.6875 20.75 9.6375 19.9406 9.17188C19.1281 8.70312 18.6219 7.9125 18.4813 7.05C17.6875 6.84063 16.8625 6.71875 16 6.71875C14.5187 6.71875 13.1281 7.06562 11.8875 7.67812L13.3719 10.3375C14.1719 9.96875 15.0625 9.75937 16 9.75937ZM20.3719 8.425C21.3906 9.01563 22.7 8.66563 23.2906 7.64375C23.8781 6.625 23.5313 5.31562 22.5063 4.725C21.4875 4.1375 20.1781 4.4875 19.5875 5.50938C19 6.52813 19.3469 7.8375 20.3719 8.425Z" fill="white"/>
</svg>
