<svg width="192" height="108" viewBox="0 0 192 108" fill="none" xmlns="http://www.w3.org/2000/svg">
<path d="M49.5078 61.5898C49.5078 63.0964 49.2201 64.5182 48.6445 65.8555C48.0859 67.1758 47.3073 68.3353 46.3086 69.334C45.3268 70.3158 44.1673 71.0944 42.8301 71.6699C41.5098 72.2285 40.0964 72.5078 38.5898 72.5078C37.2357 72.5078 35.9323 72.2708 34.6797 71.7969C33.444 71.3229 32.3268 70.6289 31.3281 69.7148C30.3294 70.6289 29.2038 71.3229 27.9512 71.7969C26.6986 72.2708 25.3952 72.5078 24.041 72.5078C22.5345 72.5078 21.1126 72.2285 19.7754 71.6699C18.4551 71.0944 17.2956 70.3158 16.2969 69.334C15.3151 68.3353 14.5365 67.1758 13.9609 65.8555C13.4023 64.5182 13.123 63.0964 13.123 61.5898V35.5898H20.4102V61.5898C20.4102 62.0977 20.5033 62.5801 20.6895 63.0371C20.8757 63.4772 21.1296 63.8665 21.4512 64.2051C21.7897 64.5267 22.179 64.7806 22.6191 64.9668C23.0592 65.153 23.5332 65.2461 24.041 65.2461C24.5488 65.2461 25.0228 65.153 25.4629 64.9668C25.903 64.7806 26.2839 64.5267 26.6055 64.2051C26.944 63.8665 27.2064 63.4772 27.3926 63.0371C27.5788 62.5801 27.6719 62.0977 27.6719 61.5898V35.5898H34.959V61.5898C34.959 62.0977 35.0521 62.5801 35.2383 63.0371C35.4245 63.4772 35.6784 63.8665 36 64.2051C36.3385 64.5267 36.7279 64.7806 37.168 64.9668C37.6081 65.153 38.082 65.2461 38.5898 65.2461C39.0977 65.2461 39.5716 65.153 40.0117 64.9668C40.4518 64.7806 40.8327 64.5267 41.1543 64.2051C41.4928 63.8665 41.7552 63.4772 41.9414 63.0371C42.1445 62.5801 42.2461 62.0977 42.2461 61.5898V35.5898H49.5078V61.5898ZM63.4727 37.418C63.4727 38.0612 63.3457 38.6621 63.0918 39.2207C62.8548 39.7793 62.5247 40.2702 62.1016 40.6934C61.6784 41.0996 61.179 41.4297 60.6035 41.6836C60.0449 41.9206 59.444 42.0391 58.8008 42.0391C58.1576 42.0391 57.5482 41.9206 56.9727 41.6836C56.4141 41.4297 55.9232 41.0996 55.5 40.6934C55.0938 40.2702 54.7637 39.7793 54.5098 39.2207C54.2728 38.6621 54.1543 38.0612 54.1543 37.418C54.1543 36.7917 54.2728 36.1992 54.5098 35.6406C54.7637 35.0651 55.0938 34.5742 55.5 34.168C55.9232 33.7448 56.4141 33.4147 56.9727 33.1777C57.5482 32.9238 58.1576 32.7969 58.8008 32.7969C59.444 32.7969 60.0449 32.9238 60.6035 33.1777C61.179 33.4147 61.6784 33.7448 62.1016 34.168C62.5247 34.5742 62.8548 35.0651 63.0918 35.6406C63.3457 36.1992 63.4727 36.7917 63.4727 37.418ZM62.2793 72H55.2969V44.8066H62.2793V72ZM86.9336 58.1621C86.9336 57.2142 86.7474 56.3001 86.375 55.4199C86.0195 54.5228 85.5286 53.7357 84.9023 53.0586C84.276 52.3646 83.5397 51.8145 82.6934 51.4082C81.8639 50.985 80.9753 50.7734 80.0273 50.7734C79.0794 50.7734 78.1823 50.9342 77.3359 51.2559C76.5065 51.5775 75.7786 52.0514 75.1523 52.6777C74.543 53.304 74.0605 54.0827 73.7051 55.0137C73.3496 55.9277 73.1719 56.9772 73.1719 58.1621C73.1719 59.2962 73.3496 60.3203 73.7051 61.2344C74.0605 62.1315 74.543 62.9017 75.1523 63.5449C75.7786 64.1882 76.5065 64.6875 77.3359 65.043C78.1823 65.3815 79.0794 65.5508 80.0273 65.5508C80.9753 65.5508 81.8639 65.3477 82.6934 64.9414C83.5397 64.5182 84.276 63.9681 84.9023 63.291C85.5286 62.597 86.0195 61.8099 86.375 60.9297C86.7474 60.0326 86.9336 59.11 86.9336 58.1621ZM93.916 68.5723C93.916 70.485 93.5521 72.2793 92.8242 73.9551C92.0964 75.6309 91.0977 77.0951 89.8281 78.3477C88.5755 79.6003 87.1029 80.5905 85.4102 81.3184C83.7344 82.0462 81.9401 82.4102 80.0273 82.4102L76.5488 82.3594V75.4277L79.9766 75.4785C81.0599 75.4785 81.9824 75.3346 82.7441 75.0469C83.5059 74.776 84.1491 74.3952 84.6738 73.9043C85.1986 73.4303 85.6133 72.8802 85.918 72.2539C86.2396 71.6276 86.4935 70.9674 86.6797 70.2734C86.4089 70.7135 86.0195 71.0775 85.5117 71.3652C85.0039 71.6361 84.4368 71.8561 83.8105 72.0254C83.2012 72.2116 82.5579 72.3385 81.8809 72.4062C81.2207 72.474 80.6029 72.5078 80.0273 72.5078C78.1146 72.5078 76.3118 72.1777 74.6191 71.5176C72.9434 70.8574 71.4707 69.918 70.2012 68.6992C68.9486 67.4635 67.9583 65.957 67.2305 64.1797C66.5026 62.4023 66.1387 60.3965 66.1387 58.1621C66.1387 56.1139 66.5026 54.2096 67.2305 52.4492C67.9583 50.6888 68.9486 49.1654 70.2012 47.8789C71.4707 46.5924 72.9434 45.5853 74.6191 44.8574C76.3118 44.1296 78.1146 43.7656 80.0273 43.7656C80.9076 43.7656 81.7793 43.8757 82.6426 44.0957C83.5059 44.3158 84.3438 44.6204 85.1562 45.0098C85.9688 45.3991 86.7389 45.8561 87.4668 46.3809C88.2116 46.9056 88.9056 47.4727 89.5488 48.082L92.2402 44.8574H93.916V68.5723ZM108.033 72H101.102V51.7129H97.7246V44.8066H101.102V43.5117C101.102 41.8359 101.415 40.2617 102.041 38.7891C102.684 37.3164 103.556 36.0384 104.656 34.9551C105.773 33.8548 107.068 32.9915 108.541 32.3652C110.014 31.722 111.588 31.4004 113.264 31.4004H118.469V38.3066H113.264C112.519 38.3066 111.825 38.4421 111.182 38.7129C110.555 38.9668 110.005 39.3307 109.531 39.8047C109.074 40.2617 108.71 40.8118 108.439 41.4551C108.169 42.0814 108.033 42.7669 108.033 43.5117V44.8066H116.539V51.7129H108.033V72ZM126.771 72H119.84V44.8066H121.516L123.801 48.0312C124.918 47.0156 126.188 46.237 127.609 45.6953C129.031 45.1367 130.504 44.8574 132.027 44.8574H138.146V51.7637H132.027C131.299 51.7637 130.614 51.8991 129.971 52.1699C129.327 52.4408 128.769 52.8132 128.295 53.2871C127.821 53.7611 127.449 54.3197 127.178 54.9629C126.907 55.6061 126.771 56.2917 126.771 57.0195V72ZM149.547 37.418C149.547 38.0612 149.42 38.6621 149.166 39.2207C148.929 39.7793 148.599 40.2702 148.176 40.6934C147.753 41.0996 147.253 41.4297 146.678 41.6836C146.119 41.9206 145.518 42.0391 144.875 42.0391C144.232 42.0391 143.622 41.9206 143.047 41.6836C142.488 41.4297 141.997 41.0996 141.574 40.6934C141.168 40.2702 140.838 39.7793 140.584 39.2207C140.347 38.6621 140.229 38.0612 140.229 37.418C140.229 36.7917 140.347 36.1992 140.584 35.6406C140.838 35.0651 141.168 34.5742 141.574 34.168C141.997 33.7448 142.488 33.4147 143.047 33.1777C143.622 32.9238 144.232 32.7969 144.875 32.7969C145.518 32.7969 146.119 32.9238 146.678 33.1777C147.253 33.4147 147.753 33.7448 148.176 34.168C148.599 34.5742 148.929 35.0651 149.166 35.6406C149.42 36.1992 149.547 36.7917 149.547 37.418ZM148.354 72H141.371V44.8066H148.354V72ZM179.939 72H178.264L175.572 68.2676C174.912 68.86 174.21 69.4186 173.465 69.9434C172.737 70.4512 171.967 70.8997 171.154 71.2891C170.342 71.6615 169.504 71.9577 168.641 72.1777C167.794 72.3978 166.931 72.5078 166.051 72.5078C164.138 72.5078 162.335 72.1523 160.643 71.4414C158.967 70.7135 157.494 69.7148 156.225 68.4453C154.972 67.1589 153.982 65.6439 153.254 63.9004C152.526 62.14 152.162 60.2272 152.162 58.1621C152.162 56.1139 152.526 54.2096 153.254 52.4492C153.982 50.6888 154.972 49.1654 156.225 47.8789C157.494 46.5924 158.967 45.5853 160.643 44.8574C162.335 44.1296 164.138 43.7656 166.051 43.7656C166.66 43.7656 167.286 43.8164 167.93 43.918C168.59 44.0195 169.225 44.1888 169.834 44.4258C170.46 44.6458 171.044 44.9421 171.586 45.3145C172.128 45.6868 172.585 46.1439 172.957 46.6855V33.9902H179.939V72ZM172.957 58.1621C172.957 57.2142 172.771 56.3001 172.398 55.4199C172.043 54.5228 171.552 53.7357 170.926 53.0586C170.299 52.3646 169.563 51.8145 168.717 51.4082C167.887 50.985 166.999 50.7734 166.051 50.7734C165.103 50.7734 164.206 50.9427 163.359 51.2812C162.53 51.6198 161.802 52.1107 161.176 52.7539C160.566 53.3802 160.084 54.1504 159.729 55.0645C159.373 55.9785 159.195 57.0111 159.195 58.1621C159.195 59.1608 159.373 60.1087 159.729 61.0059C160.084 61.903 160.566 62.6901 161.176 63.3672C161.802 64.0443 162.53 64.5775 163.359 64.9668C164.206 65.3561 165.103 65.5508 166.051 65.5508C166.999 65.5508 167.887 65.3477 168.717 64.9414C169.563 64.5182 170.299 63.9681 170.926 63.291C171.552 62.597 172.043 61.8099 172.398 60.9297C172.771 60.0326 172.957 59.11 172.957 58.1621Z" fill="#FF375C"/>
</svg>
